#!OML:ASF H:\Terrain\Patient Classification 1\Terrain2\Thursday\justin.ASF
:FULLY-SPECIFIED
:DEGREES
2788
root 4.58256 17.5773 21.1062 625.503 -97.9419 -262.867
lowerback 8.22928 1.84494 8.12415
upperback 3.80815 2.87482 4.02326
thorax -0.437472 1.39794 -0.612347
lowerneck -11.6014 -3.04016 -11.3762
upperneck 36.119 -4.97729 5.65433
head 14.9136 -3.37965 3.46911
rclavicle 4.37326e-014 4.92986e-014
rhumerus -26.2891 0.80995 -83.9153
rradius 36.9314
rwrist -11.2217
rhand -21.812 15.2215
rfingers 7.12502
rthumb 4.59026 -14.7087
lclavicle 4.37326e-014 4.92986e-014
lhumerus -40.8263 17.8169 78.1264
lradius 23.5499
lwrist -2.23224
lhand -16.5732 20.3041
lfingers 7.12502
lthumb 9.64713 -309.937
rfemur 19.2275 -2.10082 30.8905
rtibia -1.59028e-014
rfoot -13.135 1.68466
rtoes -10.3572
lfemur -30.8747 1.02106 -8.63316
ltibia 25.8475
lfoot -7.05289 -9.47884
ltoes 5.97818
2789
root 4.47749 17.5401 21.1337 623.895 -98.0242 -261.252
lowerback 8.21958 1.7846 8.31052
upperback 3.79296 2.80959 3.94717
thorax -0.438034 1.3688 -0.788527
lowerneck -11.6622 -3.12953 -11.2187
upperneck 36.0899 -5.16745 5.72254
head 14.9318 -3.42719 3.43804
rclavicle 2.48481e-014 5.00937e-014
rhumerus -26.2697 0.338439 -83.857
rradius 37.0906
rwrist -11.0124
rhand -20.8725 15.1347
rfingers 7.12502
rthumb 5.49748 -14.774
lclavicle 2.48481e-014 5.00937e-014
lhumerus -40.8229 17.4589 78.1242
lradius 23.3971
lwrist -2.28555
lhand -15.9594 20.1084
lfingers 7.12502
lthumb 10.2394 -310.161
rfemur 19.4938 -2.25297 30.6877
rtibia 5.40694e-014
rfoot -12.715 2.48908
rtoes -6.33697
lfemur -30.5783 1.29967 -8.84708
ltibia 26.1988
lfoot -6.03518 -10.2255
ltoes 8.57683
2790
root 4.36454 17.5191 21.1619 623.517 -97.7683 -260.861
lowerback 8.16979 2.11132 8.55259
upperback 3.81165 3.26309 3.39374
thorax -0.309706 1.61511 -1.52406
lowerneck -11.7599 -3.53092 -10.3167
upperneck 36.088 -6.06171 5.87848
head 15.0243 -3.65781 3.19608
rclavicle -1.82882e-014 -2.8625e-014
rhumerus -26.3042 -1.62157 -83.9137
rradius 37.2444
rwrist -10.7441
rhand -20.1603 14.8783
rfingers 7.12502
rthumb 6.18505 -15.0114
lclavicle -1.82882e-014 -2.8625e-014
lhumerus -40.2232 16.1658 78.0213
lradius 22.9714
lwrist -2.66768
lhand -15.6171 19.6216
lfingers 7.12502
lthumb 10.5695 -310.664
rfemur 19.8781 -2.2093 30.212
rtibia 9.54166e-015
rfoot -12.2652 2.91344
rtoes -5.56608
lfemur -30.2195 1.42116 -9.35032
ltibia 26.4692
lfoot -5.47979 -10.6939
ltoes 7.41232
2791
root 4.24425 17.5249 21.1895 624.017 -97.5518 -261.354
lowerback 8.0283 1.76492 7.84814
upperback 3.76171 2.7408 3.84213
thorax -0.391292 1.33614 -0.63232
lowerneck -11.7206 -3.15448 -11.2228
upperneck 36.2413 -5.22754 5.73474
head 15.0261 -3.45973 3.43618
rclavicle -2.80286e-014 -2.3059e-014
rhumerus -26.2644 -0.0660466 -83.4704
rradius 37.0832
rwrist -11.0515
rhand -19.9377 16.03
rfingers 7.12502
rthumb 6.39999 -13.8533
lclavicle -2.80286e-014 -2.3059e-014
lhumerus -40.9917 18.6037 77.6913
lradius 22.6673
lwrist -3.96202
lhand -15.6825 19.5744
lfingers 7.12502
lthumb 10.5064 -310.708
rfemur 20.2974 -2.07302 29.8733
rtibia 1.59028e-014
rfoot -11.916 2.94857
rtoes -8.38652
lfemur -29.9748 1.60816 -9.75665
ltibia 26.7414
lfoot -4.62835 -11.0387
ltoes 5.77336
2792
root 4.1218 17.5285 21.2179 624.069 -97.5384 -261.517
lowerback 8.09196 1.72043 7.68986
upperback 3.71817 2.67934 4.02967
thorax -0.493633 1.29637 -0.350031
lowerneck -11.6466 -3.12797 -11.6855
upperneck 36.2906 -5.11208 5.81601
head 15.0413 -3.46944 3.57327
rclavicle -7.15625e-015 -1.27222e-014
rhumerus -26.3837 0.0687213 -83.0312
rradius 36.954
rwrist -11.3223
rhand -19.4451 17.1437
rfingers 7.12502
rthumb 6.87547 -12.7246
lclavicle -7.15625e-015 -1.27222e-014
lhumerus -41.2071 19.2237 77.6993
lradius 22.3722
lwrist -4.55915
lhand -15.9365 19.7399
lfingers 7.12502
lthumb 10.2615 -310.53
rfemur 20.8471 -2.03317 29.7745
rtibia -5.40694e-014
rfoot -11.7123 2.74144
rtoes -11.8621
lfemur -29.7377 1.8184 -9.91325
ltibia 26.9109
lfoot -3.27101 -11.096
ltoes 5.12673
